<mxfile host="65bd71144e" modified="2020-12-08T07:49:45.595Z" agent="5.0 (Windows NT 10.0; Win64; x64) AppleWebKit/537.36 (KHTML, like Gecko) Code/1.51.1 Chrome/83.0.4103.122 Electron/9.3.3 Safari/537.36" etag="87aG89C0hJK1mLMlLSSx" version="13.10.0" type="embed">
    <diagram id="dw9hGWWSUfnvdo-zmqRR" name="Page-1">
        <mxGraphModel dx="1150" dy="790" grid="1" gridSize="10" guides="1" tooltips="1" connect="1" arrows="1" fold="1" page="1" pageScale="1" pageWidth="850" pageHeight="1100" math="0" shadow="0">
            <root>
                <mxCell id="0"/>
                <mxCell id="1" parent="0"/>
                <mxCell id="3OzrX8PPoRY-kCdxgjjC-1" value="" style="whiteSpace=wrap;html=1;aspect=fixed;" parent="1" vertex="1">
                    <mxGeometry x="160" y="65" width="550" height="550" as="geometry"/>
                </mxCell>
                <mxCell id="3OzrX8PPoRY-kCdxgjjC-15" style="edgeStyle=orthogonalEdgeStyle;rounded=0;orthogonalLoop=1;jettySize=auto;html=1;exitX=0.5;exitY=0.5;exitDx=0;exitDy=0;exitPerimeter=0;entryX=0;entryY=0.5;entryDx=0;entryDy=0;" parent="1" source="3OzrX8PPoRY-kCdxgjjC-2" target="3OzrX8PPoRY-kCdxgjjC-10" edge="1">
                    <mxGeometry relative="1" as="geometry"/>
                </mxCell>
                <mxCell id="3OzrX8PPoRY-kCdxgjjC-18" style="edgeStyle=orthogonalEdgeStyle;rounded=0;orthogonalLoop=1;jettySize=auto;html=1;exitX=0.5;exitY=0.5;exitDx=0;exitDy=0;exitPerimeter=0;entryX=0;entryY=0;entryDx=0;entryDy=0;" parent="1" source="3OzrX8PPoRY-kCdxgjjC-2" target="3OzrX8PPoRY-kCdxgjjC-16" edge="1">
                    <mxGeometry relative="1" as="geometry"/>
                </mxCell>
                <mxCell id="3OzrX8PPoRY-kCdxgjjC-23" style="edgeStyle=orthogonalEdgeStyle;rounded=0;orthogonalLoop=1;jettySize=auto;html=1;exitX=0.5;exitY=0.5;exitDx=0;exitDy=0;exitPerimeter=0;entryX=0;entryY=0.5;entryDx=0;entryDy=0;" parent="1" source="3OzrX8PPoRY-kCdxgjjC-2" target="3OzrX8PPoRY-kCdxgjjC-19" edge="1">
                    <mxGeometry relative="1" as="geometry"/>
                </mxCell>
                <mxCell id="3OzrX8PPoRY-kCdxgjjC-2" value="School Admin" style="shape=umlActor;verticalLabelPosition=bottom;verticalAlign=top;html=1;outlineConnect=0;" parent="1" vertex="1">
                    <mxGeometry x="66" y="169" width="30" height="60" as="geometry"/>
                </mxCell>
                <mxCell id="3OzrX8PPoRY-kCdxgjjC-10" value="register" style="ellipse;whiteSpace=wrap;html=1;" parent="1" vertex="1">
                    <mxGeometry x="365" y="130" width="120" height="80" as="geometry"/>
                </mxCell>
                <mxCell id="3OzrX8PPoRY-kCdxgjjC-11" value="1-creating user data&amp;nbsp;" style="rounded=0;whiteSpace=wrap;html=1;" parent="1" vertex="1">
                    <mxGeometry x="490" y="149" width="120" height="20" as="geometry"/>
                </mxCell>
                <mxCell id="3OzrX8PPoRY-kCdxgjjC-12" value="2-creating phone verification" style="rounded=0;whiteSpace=wrap;html=1;" parent="1" vertex="1">
                    <mxGeometry x="490" y="180" width="120" height="40" as="geometry"/>
                </mxCell>
                <mxCell id="3OzrX8PPoRY-kCdxgjjC-14" value="3-completing school data or profile" style="rounded=0;whiteSpace=wrap;html=1;" parent="1" vertex="1">
                    <mxGeometry x="490" y="229" width="120" height="60" as="geometry"/>
                </mxCell>
                <mxCell id="3OzrX8PPoRY-kCdxgjjC-16" value="login" style="ellipse;whiteSpace=wrap;html=1;" parent="1" vertex="1">
                    <mxGeometry x="365" y="300" width="120" height="80" as="geometry"/>
                </mxCell>
                <mxCell id="3OzrX8PPoRY-kCdxgjjC-17" value="login with phone and password" style="rounded=0;whiteSpace=wrap;html=1;" parent="1" vertex="1">
                    <mxGeometry x="490" y="320" width="120" height="30" as="geometry"/>
                </mxCell>
                <mxCell id="3OzrX8PPoRY-kCdxgjjC-19" value="reset password" style="ellipse;whiteSpace=wrap;html=1;" parent="1" vertex="1">
                    <mxGeometry x="365" y="440" width="120" height="80" as="geometry"/>
                </mxCell>
                <mxCell id="3OzrX8PPoRY-kCdxgjjC-20" value="1-enter phone number" style="rounded=0;whiteSpace=wrap;html=1;" parent="1" vertex="1">
                    <mxGeometry x="490" y="460" width="120" height="30" as="geometry"/>
                </mxCell>
                <mxCell id="3OzrX8PPoRY-kCdxgjjC-21" value="2-phone vrification" style="rounded=0;whiteSpace=wrap;html=1;" parent="1" vertex="1">
                    <mxGeometry x="490" y="510" width="120" height="20" as="geometry"/>
                </mxCell>
                <mxCell id="3OzrX8PPoRY-kCdxgjjC-22" value="3-reset password" style="rounded=0;whiteSpace=wrap;html=1;" parent="1" vertex="1">
                    <mxGeometry x="490" y="540" width="120" height="20" as="geometry"/>
                </mxCell>
                <mxCell id="3OzrX8PPoRY-kCdxgjjC-39" style="edgeStyle=orthogonalEdgeStyle;rounded=0;orthogonalLoop=1;jettySize=auto;html=1;exitX=0.5;exitY=0.5;exitDx=0;exitDy=0;exitPerimeter=0;" parent="1" source="3OzrX8PPoRY-kCdxgjjC-36" edge="1">
                    <mxGeometry relative="1" as="geometry">
                        <mxPoint x="230" y="200" as="targetPoint"/>
                    </mxGeometry>
                </mxCell>
                <mxCell id="3OzrX8PPoRY-kCdxgjjC-36" value="Teacher" style="shape=umlActor;verticalLabelPosition=bottom;verticalAlign=top;html=1;outlineConnect=0;" parent="1" vertex="1">
                    <mxGeometry x="66" y="330" width="30" height="60" as="geometry"/>
                </mxCell>
                <mxCell id="3OzrX8PPoRY-kCdxgjjC-40" value="" style="rounded=0;whiteSpace=wrap;html=1;" parent="1" vertex="1">
                    <mxGeometry x="160" y="680" width="560" height="610" as="geometry"/>
                </mxCell>
                <mxCell id="3OzrX8PPoRY-kCdxgjjC-41" value="accept/reject school admin requests" style="ellipse;whiteSpace=wrap;html=1;" parent="1" vertex="1">
                    <mxGeometry x="380" y="860" width="120" height="80" as="geometry"/>
                </mxCell>
                <mxCell id="3OzrX8PPoRY-kCdxgjjC-42" value="accept/reject teachers requests" style="ellipse;whiteSpace=wrap;html=1;" parent="1" vertex="1">
                    <mxGeometry x="375" y="960" width="120" height="80" as="geometry"/>
                </mxCell>
                <mxCell id="3OzrX8PPoRY-kCdxgjjC-49" style="edgeStyle=orthogonalEdgeStyle;rounded=0;orthogonalLoop=1;jettySize=auto;html=1;exitX=1;exitY=1;exitDx=0;exitDy=0;exitPerimeter=0;entryX=0;entryY=0.5;entryDx=0;entryDy=0;" parent="1" source="3OzrX8PPoRY-kCdxgjjC-43" target="3OzrX8PPoRY-kCdxgjjC-42" edge="1">
                    <mxGeometry relative="1" as="geometry"/>
                </mxCell>
                <mxCell id="3OzrX8PPoRY-kCdxgjjC-51" style="edgeStyle=orthogonalEdgeStyle;rounded=0;orthogonalLoop=1;jettySize=auto;html=1;exitX=0.5;exitY=0.5;exitDx=0;exitDy=0;exitPerimeter=0;entryX=0;entryY=0.5;entryDx=0;entryDy=0;" parent="1" source="3OzrX8PPoRY-kCdxgjjC-43" target="3OzrX8PPoRY-kCdxgjjC-41" edge="1">
                    <mxGeometry relative="1" as="geometry"/>
                </mxCell>
                <mxCell id="3OzrX8PPoRY-kCdxgjjC-53" style="edgeStyle=orthogonalEdgeStyle;rounded=0;orthogonalLoop=1;jettySize=auto;html=1;exitX=1;exitY=0.3333333333333333;exitDx=0;exitDy=0;exitPerimeter=0;entryX=0;entryY=0.5;entryDx=0;entryDy=0;" parent="1" source="3OzrX8PPoRY-kCdxgjjC-43" target="3OzrX8PPoRY-kCdxgjjC-52" edge="1">
                    <mxGeometry relative="1" as="geometry"/>
                </mxCell>
                <mxCell id="3OzrX8PPoRY-kCdxgjjC-73" style="edgeStyle=orthogonalEdgeStyle;rounded=0;orthogonalLoop=1;jettySize=auto;html=1;exitX=0;exitY=1;exitDx=0;exitDy=0;exitPerimeter=0;entryX=0;entryY=0.5;entryDx=0;entryDy=0;" parent="1" source="3OzrX8PPoRY-kCdxgjjC-43" target="3OzrX8PPoRY-kCdxgjjC-72" edge="1">
                    <mxGeometry relative="1" as="geometry"/>
                </mxCell>
                <mxCell id="3OzrX8PPoRY-kCdxgjjC-43" value="Admin" style="shape=umlActor;verticalLabelPosition=bottom;verticalAlign=top;html=1;outlineConnect=0;" parent="1" vertex="1">
                    <mxGeometry x="60" y="750" width="30" height="60" as="geometry"/>
                </mxCell>
                <mxCell id="3OzrX8PPoRY-kCdxgjjC-52" value="show school or teacher requests&lt;br&gt;" style="ellipse;whiteSpace=wrap;html=1;" parent="1" vertex="1">
                    <mxGeometry x="375" y="750" width="120" height="80" as="geometry"/>
                </mxCell>
                <mxCell id="3OzrX8PPoRY-kCdxgjjC-67" style="edgeStyle=orthogonalEdgeStyle;rounded=0;orthogonalLoop=1;jettySize=auto;html=1;exitX=0.5;exitY=0.5;exitDx=0;exitDy=0;exitPerimeter=0;entryX=1;entryY=1;entryDx=0;entryDy=0;" parent="1" source="3OzrX8PPoRY-kCdxgjjC-60" target="3OzrX8PPoRY-kCdxgjjC-16" edge="1">
                    <mxGeometry relative="1" as="geometry"/>
                </mxCell>
                <mxCell id="3OzrX8PPoRY-kCdxgjjC-69" style="edgeStyle=orthogonalEdgeStyle;rounded=0;orthogonalLoop=1;jettySize=auto;html=1;exitX=0.5;exitY=0.5;exitDx=0;exitDy=0;exitPerimeter=0;" parent="1" source="3OzrX8PPoRY-kCdxgjjC-60" target="3OzrX8PPoRY-kCdxgjjC-19" edge="1">
                    <mxGeometry relative="1" as="geometry"/>
                </mxCell>
                <mxCell id="3OzrX8PPoRY-kCdxgjjC-60" value="Admin" style="shape=umlActor;verticalLabelPosition=bottom;verticalAlign=top;html=1;outlineConnect=0;" parent="1" vertex="1">
                    <mxGeometry x="785" y="331" width="30" height="60" as="geometry"/>
                </mxCell>
                <mxCell id="3OzrX8PPoRY-kCdxgjjC-70" value="teacher and school admin singin/up" style="text;html=1;align=center;verticalAlign=middle;resizable=0;points=[];autosize=1;" parent="1" vertex="1">
                    <mxGeometry x="300" y="620" width="200" height="20" as="geometry"/>
                </mxCell>
                <mxCell id="3OzrX8PPoRY-kCdxgjjC-71" value="admin on requests" style="text;html=1;align=center;verticalAlign=middle;resizable=0;points=[];autosize=1;" parent="1" vertex="1">
                    <mxGeometry x="390" y="1320" width="110" height="20" as="geometry"/>
                </mxCell>
                <mxCell id="3OzrX8PPoRY-kCdxgjjC-72" value="add or update or remove school admins or teachers" style="ellipse;whiteSpace=wrap;html=1;" parent="1" vertex="1">
                    <mxGeometry x="375" y="1050" width="120" height="80" as="geometry"/>
                </mxCell>
                <mxCell id="3OzrX8PPoRY-kCdxgjjC-75" value="&amp;nbsp; &amp;nbsp; &amp;nbsp; &amp;nbsp; &amp;nbsp; &amp;nbsp; &amp;nbsp; &amp;nbsp; &amp;nbsp; &amp;nbsp; &amp;nbsp; *************************************Use Case Diagram**********************************" style="text;html=1;align=center;verticalAlign=middle;resizable=0;points=[];autosize=1;" parent="1" vertex="1">
                    <mxGeometry x="100" y="20" width="520" height="20" as="geometry"/>
                </mxCell>
                <mxCell id="2" value="" style="whiteSpace=wrap;html=1;aspect=fixed;" vertex="1" parent="1">
                    <mxGeometry x="160" y="1370" width="560" height="560" as="geometry"/>
                </mxCell>
            </root>
        </mxGraphModel>
    </diagram>
</mxfile>